PathFileType	4	(X/Y/Z)	/Users/itak/Documents/Research/Walk-IL/dataset/trc/00578_00009.trc
DataRate	CameraRate	NumFrames	NumMarkers	Units	OrigDataRate	OrigDataStartFrame	OrigNumFrames
100.000000	100.000000	4	53	mm	100.000000	0	517
Frame#	Time	RPSI			LPSI			L3			STRN			T10			C7			CLAV			RBAK			LBAK			LSHO			LUPA			LAEL			LAOL			LWTS			LWPS			LFRA			LIFD			LHPS			LHTS			RSHO			RUPA			RAEL			RAOL			RWTS			RWPS			RFRA			RIFD			RHTS			RHPS			RBHD			LFHD			RFHD			LBHD			LHIP			RHIP			RASI			LASI			LKNE			LTHI			LANK			LTIP			LTOE			LMT1			LMT5			LHEE			RKNE			RTHI			RANK			RTIP			RTOE			RMT1			RMT5			RHEE			
		X1	Y1	Z1	X2	Y2	Z2	X3	Y3	Z3	X4	Y4	Z4	X5	Y5	Z5	X6	Y6	Z6	X7	Y7	Z7	X8	Y8	Z8	X9	Y9	Z9	X10	Y10	Z10	X11	Y11	Z11	X12	Y12	Z12	X13	Y13	Z13	X14	Y14	Z14	X15	Y15	Z15	X16	Y16	Z16	X17	Y17	Z17	X18	Y18	Z18	X19	Y19	Z19	X20	Y20	Z20	X21	Y21	Z21	X22	Y22	Z22	X23	Y23	Z23	X24	Y24	Z24	X25	Y25	Z25	X26	Y26	Z26	X27	Y27	Z27	X28	Y28	Z28	X29	Y29	Z29	X30	Y30	Z30	X31	Y31	Z31	X32	Y32	Z32	X33	Y33	Z33	X34	Y34	Z34	X35	Y35	Z35	X36	Y36	Z36	X37	Y37	Z37	X38	Y38	Z38	X39	Y39	Z39	X40	Y40	Z40	X41	Y41	Z41	X42	Y42	Z42	X43	Y43	Z43	X44	Y44	Z44	X45	Y45	Z45	X46	Y46	Z46	X47	Y47	Z47	X48	Y48	Z48	X49	Y49	Z49	X50	Y50	Z50	X51	Y51	Z51	X52	Y52	Z52	X53	Y53	Z53	

1	0	-1188.9931640625	1019.539978027344	-169.9366455078125	-1111.023071289062	1022.240539550781	-279.6199340820312	-1142.84716796875	1100.296752929688	-226.4042053222656	-950.4645385742188	1299.402099609375	-108.5188903808594	-1156.550048828125	1225.966064453125	-234.8772583007812	-1136.1630859375	1502.113647460938	-206.4575347900391	-973.3479614257812	1410.25537109375	-122.6736297607422	-1231.863159179688	1372.100830078125	-165.9809417724609	-1116.702270507812	1448.327026367188	-300.9556579589844	-992.157958984375	1478.029907226562	-324.6793212890625	-961.25244140625	1351.307495117188	-398.5126953125	-932.11328125	1130.984497070312	-407.9420776367188	-1033.059448242188	1124.65673828125	-407.1384582519531	-890.7177124023438	881.1110229492188	-332.0787658691406	-890.5296020507812	862.3688354492188	-417.1598205566406	-911.1630859375	1043.942138671875	-405.2003479003906	-912.5653686523438	713.6141967773438	-341.9874572753906	-894.4668579101562	801.3838500976562	-408.7148132324219	-875.1083374023438	801.235107421875	-343.3965454101562	-1164.217041015625	1468.76123046875	-42.79513549804688	-1212.666015625	1403.021606445312	7.682140827178955	-1225.163208007812	1113.532348632812	51.38154602050781	-1260.337524414062	1095.5625	1.539608716964722	-1088.373413085938	892.8736572265625	84.29444885253906	-1160.8486328125	873.2504272460938	119.5773468017578	-1219.502807617188	1058.467163085938	63.36644744873047	-1084.6669921875	720.9776611328125	86.22743988037109	-1071.895751953125	801.3132934570312	110.9278411865234	-1145.530029296875	798.8438720703125	126.9369125366211	-1118.309936523438	1684.451049804688	-120.9103088378906	-918.3070068359375	1725.0126953125	-168.5106964111328	-1004.706665039062	1722.602783203125	-47.8569221496582	-1016.979736328125	1686.717163085938	-251.2381439208984	-937.7615356445312	935.4611206054688	-320.8390502929688	-1156.56103515625	940.6900024414062	-3.410632371902466	-1051.336303710938	968.7048950195312	-2.803072690963745	-884.4819946289062	968.3114013671875	-241.8270874023438	-985.4674072265625	490.6965942382812	-273.1819152832031	-950.6395263671875	654.2542724609375	-298.9403381347656	-1069.595581054688	33.77400207519531	-307.70703125	-1045.525634765625	250.1372528076172	-310.4516906738281	-913.7091674804688	36.45898818969727	-152.96728515625	-995.609130859375	38.99031066894531	-158.5270385742188	-955.8545532226562	35.10503005981445	-259.1160278320312	-1156.098876953125	30.41721725463867	-294.1128540039062	-1132.944580078125	496.2119140625	-42.65265655517578	-1130.92333984375	784.7835083007812	13.31602001190186	-1209.142333984375	37.06260681152344	-110.1026382446289	-1133.497802734375	354.95068359375	-57.99478530883789	-999.7300415039062	37.12408447265625	-23.65247344970703	-1031.521118164062	38.91414642333984	-93.53086090087891	-1109.005249023438	37.86976623535156	-20.6664867401123	-1223.443603515625	27.57146835327148	-185.1034545898438	
2	0.01	-1189.025024414062	1019.542419433594	-170.0340270996094	-1111.06494140625	1022.255981445312	-279.6673889160156	-1142.887451171875	1100.332153320312	-226.4501190185547	-950.48095703125	1299.385131835938	-108.5699310302734	-1156.563354492188	1225.999145507812	-234.9148559570312	-1136.099365234375	1502.139404296875	-206.5229034423828	-973.319580078125	1410.251586914062	-122.7164840698242	-1231.855712890625	1372.156127929688	-166.0293273925781	-1116.584838867188	1448.375366210938	-300.995849609375	-992.1229248046875	1478.009765625	-324.6983032226562	-961.1749877929688	1351.309326171875	-398.5963439941406	-932.06884765625	1130.968017578125	-408.117919921875	-1033.038452148438	1124.685913085938	-407.2319946289062	-890.7180786132812	881.061767578125	-332.4716491699219	-890.6734008789062	862.3666381835938	-417.6019592285156	-911.1953125	1043.907958984375	-405.5315856933594	-912.8247680664062	713.4486083984375	-342.3341979980469	-894.529541015625	801.3798217773438	-409.1750793457031	-875.3593139648438	801.0486450195312	-343.7789306640625	-1164.15234375	1468.808715820312	-42.85916519165039	-1212.64111328125	1403.099853515625	7.612002849578857	-1225.244384765625	1113.602783203125	51.38507461547852	-1260.38134765625	1095.660400390625	1.523116111755371	-1088.626953125	892.8762817382812	84.47734069824219	-1161.192138671875	873.3297119140625	119.7286911010742	-1219.6259765625	1058.573486328125	63.40568542480469	-1085.05029296875	720.9525756835938	86.55606842041016	-1072.2314453125	801.3095703125	111.1647415161133	-1145.952270507812	798.9163818359375	127.188606262207	-1118.185668945312	1684.472290039062	-120.9945449829102	-918.1746215820312	1725.0087890625	-168.4631958007812	-1004.622192382812	1722.541870117188	-47.88302993774414	-1016.853698730469	1686.698852539062	-251.2337951660156	-937.7685546875	935.447509765625	-320.8317565917969	-1156.646728515625	940.7141723632812	-3.506059169769287	-1051.4228515625	968.7200927734375	-2.856623888015747	-887.7794799804688	966.188720703125	-239.9750518798828	-985.4756469726562	490.7022705078125	-273.1764221191406	-950.6508178710938	654.2538452148438	-298.9290466308594	-1069.594360351562	33.74847412109375	-307.681640625	-1045.526611328125	250.1373443603516	-310.4519653320312	-913.703857421875	36.46142578125	-152.9651641845703	-995.598876953125	38.98909759521484	-158.5369720458984	-955.8377685546875	35.0975227355957	-259.1241760253906	-1156.111083984375	30.41779518127441	-294.1014404296875	-1132.913452148438	496.2067260742188	-42.62802886962891	-1130.949096679688	784.7850952148438	13.25075340270996	-1209.142700195312	37.06095504760742	-110.1018600463867	-1133.450927734375	354.9327697753906	-57.99039840698242	-999.7310791015625	37.12386322021484	-23.65194702148438	-1031.515014648438	38.91724395751953	-93.53177642822266	-1109.010009765625	37.86886596679688	-20.66850852966309	-1223.468505859375	27.58316230773926	-185.1233062744141	
3	0.02	-1189.066650390625	1019.544067382812	-170.1557922363281	-1111.120483398438	1022.274719238281	-279.7276306152344	-1142.939697265625	1100.376098632812	-226.5073852539062	-950.5048217773438	1299.364624023438	-108.6325531005859	-1156.581787109375	1226.040649414062	-234.95947265625	-1136.022094726562	1502.1708984375	-206.6092376708984	-973.2867431640625	1410.247436523438	-122.7750625610352	-1231.852905273438	1372.223999023438	-166.0876617431641	-1116.421508789062	1448.421508789062	-301.0477905273438	-992.0848999023438	1477.984008789062	-324.7240905761719	-961.0740966796875	1351.30859375	-398.6973876953125	-932.0027465820312	1130.942626953125	-408.3129272460938	-1032.995239257812	1124.708740234375	-407.3416442871094	-890.6632080078125	881.017578125	-332.9109497070312	-890.7864379882812	862.3638916015625	-418.0731201171875	-911.202392578125	1043.87939453125	-405.8870544433594	-913.0082397460938	713.3094482421875	-342.7337646484375	-894.5413818359375	801.3970336914062	-409.6845703125	-875.529296875	800.8875732421875	-344.224609375	-1164.0712890625	1468.865966796875	-42.94253921508789	-1212.602905273438	1403.1962890625	7.524911403656006	-1225.33642578125	1113.691040039062	51.38686370849609	-1260.432861328125	1095.77783203125	1.507010698318481	-1088.933837890625	892.8859252929688	84.70973205566406	-1161.593505859375	873.42578125	119.9193420410156	-1219.7666015625	1058.700561523438	63.45428085327148	-1085.5166015625	720.9335327148438	86.98299407958984	-1072.655883789062	801.32080078125	111.4970932006836	-1146.44287109375	799.01123046875	127.4866409301758	-1118.038818359375	1684.498413085938	-121.091796875	-918.0067749023438	1725.001098632812	-168.4010925292969	-1004.520751953125	1722.468505859375	-47.91899108886719	-1016.699096679688	1686.681884765625	-251.2314453125	-937.7854614257812	935.4313354492188	-320.8255615234375	-1156.763305664062	940.7434692382812	-3.628016471862793	-1051.532958984375	968.7384643554688	-2.918277502059937	-891.3350219726562	963.9083251953125	-237.9884033203125	-985.4862060546875	490.7078857421875	-273.1720581054688	-950.6657104492188	654.2581787109375	-298.9180297851562	-1069.595581054688	33.73032379150391	-307.6612548828125	-1045.529541015625	250.1388397216797	-310.4539794921875	-913.697265625	36.46460723876953	-152.9637908935547	-995.5760498046875	38.98434829711914	-158.5619659423828	-955.8155517578125	35.08421325683594	-259.1357116699219	-1156.1240234375	30.41939735412598	-294.0892028808594	-1132.880126953125	496.2030944824219	-42.60095977783203	-1130.986083984375	784.7893676757812	13.17325878143311	-1209.142944335938	37.05976867675781	-110.1011581420898	-1133.397338867188	354.9129333496094	-57.98593139648438	-999.731689453125	37.12383270263672	-23.65129661560059	-1031.509521484375	38.91911315917969	-93.53108978271484	-1109.012451171875	37.86741638183594	-20.67249870300293	-1223.490112304688	27.59290504455566	-185.1405487060547	
4	0.03	-1189.117309570312	1019.5439453125	-170.2965087890625	-1111.189453125	1022.294982910156	-279.7981262207031	-1143.003662109375	1100.426147460938	-226.5733795166016	-950.53662109375	1299.341796875	-108.7033004760742	-1156.60546875	1226.088500976562	-235.0083923339844	-1135.936157226562	1502.206787109375	-206.7146301269531	-973.2523193359375	1410.243408203125	-122.849235534668	-1231.857543945312	1372.300903320312	-166.1526641845703	-1116.2158203125	1448.456909179688	-301.1095275878906	-992.0487060546875	1477.953125	-324.7567138671875	-960.9524536132812	1351.304077148438	-398.8090209960938	-931.9132690429688	1130.908569335938	-408.5060424804688	-1032.924560546875	1124.716186523438	-407.4584350585938	-890.5272827148438	880.98681640625	-333.3453979492188	-890.8278198242188	862.3609619140625	-418.5170288085938	-911.1648559570312	1043.86328125	-406.2254638671875	-913.0359497070312	713.2388916015625	-343.1515502929688	-894.470947265625	801.4388427734375	-410.186279296875	-875.538330078125	800.795166015625	-344.6981201171875	-1163.978271484375	1468.928955078125	-43.04238128662109	-1212.55078125	1403.305297851562	7.425314426422119	-1225.431640625	1113.792724609375	51.38689041137695	-1260.488525390625	1095.907104492188	1.49403440952301	-1089.273681640625	892.90576171875	84.98164367675781	-1162.020141601562	873.5328369140625	120.1402435302734	-1219.912353515625	1058.840087890625	63.50972366333008	-1086.03369140625	720.9270629882812	87.4903564453125	-1073.146850585938	801.3532104492188	111.9198989868164	-1146.95947265625	799.1255493164062	127.8083190917969	-1117.880004882812	1684.528076171875	-121.1938171386719	-917.8106689453125	1724.98828125	-168.3260498046875	-1004.40673828125	1722.38720703125	-47.96599197387695	-1016.5244140625	1686.669677734375	-251.232666015625	-937.8153686523438	935.4146728515625	-320.8229064941406	-1156.909790039062	940.77734375	-3.771939277648926	-1051.662719726562	968.7589111328125	-2.982977628707886	-894.6448364257812	961.7979736328125	-236.1533813476562	-985.4986572265625	490.712646484375	-273.170654296875	-950.68408203125	654.2686157226562	-298.9095458984375	-1069.599365234375	33.72151947021484	-307.6483154296875	-1045.534057617188	250.1419067382812	-310.4575805664062	-913.6900634765625	36.46805191040039	-152.9636383056641	-995.5421752929688	38.97602462768555	-158.6002502441406	-955.78857421875	35.06496810913086	-259.1511535644531	-1156.136352539062	30.42229270935059	-294.077392578125	-1132.848022460938	496.2023315429688	-42.57503890991211	-1131.037109375	784.7980346679688	13.09259033203125	-1209.143432617188	37.05947875976562	-110.1006317138672	-1133.342651367188	354.8934631347656	-57.98203277587891	-999.7318115234375	37.12404632568359	-23.65052223205566	-1031.505493164062	38.91954040527344	-93.52870941162109	-1109.01171875	37.86524963378906	-20.67884063720703	-1223.505493164062	27.59930610656738	-185.1527252197266	
